<?xml version="1.0" encoding="UTF-8" standalone="no"?>
<!-- Created with Inkscape (http://www.inkscape.org/) -->

<svg
   xmlns:dc="http://purl.org/dc/elements/1.1/"
   xmlns:cc="http://creativecommons.org/ns#"
   xmlns:rdf="http://www.w3.org/1999/02/22-rdf-syntax-ns#"
   xmlns:svg="http://www.w3.org/2000/svg"
   xmlns="http://www.w3.org/2000/svg"
   xmlns:sodipodi="http://sodipodi.sourceforge.net/DTD/sodipodi-0.dtd"
   xmlns:inkscape="http://www.inkscape.org/namespaces/inkscape"
   width="253"
   height="150"
   id="svg3902"
   version="1.1"
   inkscape:version="0.48.3.1 r9886"
   sodipodi:docname="logo_rework_lGrSfmL.svg">
  <defs
     id="defs3904" />
  <sodipodi:namedview
     id="base"
     pagecolor="#ffffff"
     bordercolor="#666666"
     borderopacity="1.0"
     inkscape:pageopacity="0.0"
     inkscape:pageshadow="2"
     inkscape:zoom="0.49497475"
     inkscape:cx="-323.81581"
     inkscape:cy="-4.6410563"
     inkscape:document-units="px"
     inkscape:current-layer="layer3"
     showgrid="false"
     inkscape:window-width="1280"
     inkscape:window-height="739"
     inkscape:window-x="0"
     inkscape:window-y="0"
     inkscape:window-maximized="1"
     showguides="true"
     inkscape:guide-bbox="true"
     fit-margin-top="0"
     fit-margin-left="0"
     fit-margin-right="0"
     fit-margin-bottom="0" />
  <metadata
     id="metadata3907">
    <rdf:RDF>
      <cc:Work
         rdf:about="">
        <dc:format>image/svg+xml</dc:format>
        <dc:type
           rdf:resource="http://purl.org/dc/dcmitype/StillImage" />
        <dc:title />
      </cc:Work>
    </rdf:RDF>
  </metadata>
  <g
     inkscape:label="bg"
     inkscape:groupmode="layer"
     id="layer1"
     transform="translate(-103.4553,-500.98751)"
     style="display:none">
    <path
       sodipodi:type="star"
       style="fill:#c8b7b7;fill-opacity:1;stroke:none;display:inline"
       id="path3831"
       sodipodi:sides="8"
       sodipodi:cx="275"
       sodipodi:cy="413.57144"
       sodipodi:r1="181.86394"
       sodipodi:r2="168.02037"
       sodipodi:arg1="0.52359878"
       sodipodi:arg2="0.91629786"
       inkscape:flatsided="true"
       inkscape:rounded="0"
       inkscape:randomized="0"
       d="M 432.49879,504.50341 322.06985,589.23852 184.06803,571.07023 99.332926,460.64129 117.50121,322.63947 l 110.42894,-84.7351 138.00182,18.16828 84.7351,110.42894 z"
       transform="matrix(0.97155839,-0.12760099,0.12760099,0.97155839,-49.950685,191.35793)" />
  </g>
  <g
     inkscape:groupmode="layer"
     id="layer2"
     inkscape:label="icon"
     style="display:inline"
     transform="translate(-103.4553,-348.62533)" />
  <g
     inkscape:groupmode="layer"
     id="layer3"
     inkscape:label="letras"
     style="display:inline"
     transform="translate(-103.4553,-348.62533)">
    <g
       id="g3024"
       transform="matrix(0.56108012,0,0,0.56108012,45.408588,143.05299)">
      <path
         sodipodi:nodetypes="zcczcczcczcczccz"
         inkscape:connector-curvature="0"
         id="path3003-4"
         d="m 206.15811,426.23563 c -0.91169,-1.30133 -2.27829,-1.17474 -2.27829,-1.17474 l -50.33737,0 c 0,0 -1.4156,-0.10884 -2.31982,1.18616 -0.90422,1.29499 -0.37845,2.58271 -0.37845,2.58271 l 11.38364,28.3051 c 0,0 0.2024,0.42745 0.57446,0.8377 0.37207,0.41025 0.81219,0.68215 0.81219,0.68215 l 13.94182,7.06444 c 0,0 0.45699,0.22012 1.07677,0.23162 0.61978,0.0115 1.25781,-0.26825 1.25781,-0.26825 l 13.86008,-7.01583 c 0,0 0.45486,-0.22947 0.85651,-0.67582 0.40165,-0.44635 0.55327,-0.86671 0.55327,-0.86671 l 11.36343,-28.28393 c 0,0 0.54564,-1.30328 -0.36605,-2.6046 z"
         style="fill:#304392;fill-opacity:1;stroke:none;display:inline" />
      <path
         style="fill:#b4d35f;fill-opacity:1;stroke:none;display:inline"
         d="m 145.59166,428.17762 c -1.56484,-0.27552 -2.44165,0.78033 -2.44165,0.78033 l -35.5939,35.59389 c 0,0 -1.07794,0.92402 -0.80162,2.47911 0.27632,1.55508 1.55865,2.09385 1.55865,2.09385 l 28.06418,11.96529 c 0,0 0.44537,0.15913 0.99854,0.18613 0.55319,0.027 1.05666,-0.0919 1.05666,-0.0919 l 14.85367,-4.86305 c 0,0 0.47879,-0.16748 0.92517,-0.5976 0.4464,-0.43011 0.69973,-1.07909 0.69973,-1.07909 l 4.83961,-14.7615 c 0,0 0.15937,-0.4839 0.12777,-1.08352 -0.0316,-0.59963 -0.22164,-1.00407 -0.22164,-1.00407 l -11.96459,-28.03493 c 0,0 -0.53574,-1.30737 -2.10058,-1.58289 z"
         id="path3835"
         inkscape:connector-curvature="0"
         sodipodi:nodetypes="zcczcczcczcczccz" />
      <path
         sodipodi:nodetypes="zcczcczcczcczccz"
         inkscape:connector-curvature="0"
         id="path3837"
         d="m 104.63339,472.58858 c -1.30133,0.91169 -1.17473,2.27829 -1.17473,2.27829 l 0,50.33737 c 0,0 -0.10885,1.4156 1.18615,2.31982 1.295,0.90423 2.58272,0.37845 2.58272,0.37845 l 28.3051,-11.38364 c 0,0 0.42745,-0.20239 0.83769,-0.57446 0.41026,-0.37207 0.68215,-0.81219 0.68215,-0.81219 l 7.06444,-13.94182 c 0,0 0.22012,-0.45699 0.23163,-1.07676 0.0115,-0.61979 -0.26826,-1.25782 -0.26826,-1.25782 l -7.01583,-13.86007 c 0,0 -0.22947,-0.45487 -0.67582,-0.85652 -0.44634,-0.40166 -0.8667,-0.55327 -0.8667,-0.55327 l -28.28394,-11.36344 c 0,0 -1.30327,-0.54562 -2.6046,0.36606 z"
         style="fill:#a9305e;fill-opacity:1;stroke:none;display:inline" />
      <path
         style="fill:#a9305e;fill-opacity:1;stroke:none;display:inline"
         d="m 252.30358,472.58858 c 1.30133,0.91169 1.17473,2.27829 1.17473,2.27829 l 0,50.33737 c 0,0 0.10885,1.4156 -1.18615,2.31982 -1.295,0.90423 -2.58272,0.37845 -2.58272,0.37845 l -28.3051,-11.38364 c 0,0 -0.42745,-0.20239 -0.83769,-0.57446 -0.41026,-0.37207 -0.68215,-0.81219 -0.68215,-0.81219 l -7.06445,-13.94182 c 0,0 -0.22012,-0.45699 -0.23162,-1.07676 -0.0115,-0.61979 0.26826,-1.25782 0.26826,-1.25782 l 7.01583,-13.86007 c 0,0 0.22947,-0.45487 0.67582,-0.85652 0.44634,-0.40166 0.8667,-0.55327 0.8667,-0.55327 l 28.28393,-11.36344 c 0,0 1.30328,-0.54562 2.60461,0.36606 z"
         id="path3839"
         inkscape:connector-curvature="0"
         sodipodi:nodetypes="zcczcczcczcczccz" />
      <path
         style="fill:#304392;fill-opacity:1;stroke:none;display:inline"
         d="m 206.15811,573.87944 c -0.91169,1.30133 -2.27829,1.17473 -2.27829,1.17473 l -50.33737,0 c 0,0 -1.4156,0.10885 -2.31982,-1.18615 -0.90422,-1.295 -0.37845,-2.58272 -0.37845,-2.58272 l 11.38364,-28.3051 c 0,0 0.2024,-0.42745 0.57446,-0.83769 0.37207,-0.41025 0.81219,-0.68215 0.81219,-0.68215 l 13.94182,-7.06444 c 0,0 0.45699,-0.22012 1.07677,-0.23163 0.61978,-0.0115 1.25781,0.26826 1.25781,0.26826 l 13.86008,7.01583 c 0,0 0.45486,0.22947 0.85651,0.67582 0.40165,0.44635 0.55327,0.8667 0.55327,0.8667 l 11.36343,28.28394 c 0,0 0.54564,1.30327 -0.36605,2.6046 z"
         id="path3841"
         inkscape:connector-curvature="0"
         sodipodi:nodetypes="zcczcczcczcczccz" />
      <path
         sodipodi:nodetypes="zcczcczcczcczccz"
         inkscape:connector-curvature="0"
         id="path3843"
         d="m 145.59166,572.06948 c -1.56484,0.27552 -2.44165,-0.78033 -2.44165,-0.78033 l -35.5939,-35.5939 c 0,0 -1.07794,-0.92401 -0.80162,-2.4791 0.27632,-1.55508 1.55865,-2.09386 1.55865,-2.09386 l 28.06418,-11.96528 c 0,0 0.44537,-0.15913 0.99854,-0.18613 0.55319,-0.027 1.05666,0.0919 1.05666,0.0919 l 14.85367,4.86304 c 0,0 0.47879,0.16749 0.92517,0.59761 0.4464,0.4301 0.69973,1.07909 0.69973,1.07909 l 4.83961,14.76149 c 0,0 0.15937,0.4839 0.12777,1.08353 -0.0316,0.59962 -0.22164,1.00407 -0.22164,1.00407 l -11.96459,28.03492 c 0,0 -0.53574,1.30738 -2.10058,1.5829 z"
         style="fill:#de5d4a;fill-opacity:1;stroke:none;display:inline" />
      <path
         sodipodi:nodetypes="zcczcczcczcczccz"
         inkscape:connector-curvature="0"
         id="path3845"
         d="m 211.51551,428.17762 c 1.56484,-0.27552 2.44166,0.78033 2.44166,0.78033 l 35.59389,35.59389 c 0,0 1.07795,0.92402 0.80162,2.47911 -0.27631,1.55508 -1.55865,2.09385 -1.55865,2.09385 l -28.06418,11.96529 c 0,0 -0.44536,0.15913 -0.99854,0.18613 -0.55318,0.027 -1.05666,-0.0919 -1.05666,-0.0919 l -14.85367,-4.86305 c 0,0 -0.47879,-0.16748 -0.92517,-0.5976 -0.4464,-0.43011 -0.69973,-1.07909 -0.69973,-1.07909 l -4.8396,-14.7615 c 0,0 -0.15938,-0.4839 -0.12777,-1.08352 0.0316,-0.59963 0.22163,-1.00407 0.22163,-1.00407 l 11.9646,-28.03493 c 0,0 0.53574,-1.30737 2.10057,-1.58289 z"
         style="fill:#de5d4a;fill-opacity:1;stroke:none;display:inline" />
      <path
         style="fill:#b4d35f;fill-opacity:1;stroke:none;display:inline"
         d="m 211.51551,572.06948 c 1.56484,0.27552 2.44166,-0.78033 2.44166,-0.78033 l 35.59389,-35.5939 c 0,0 1.07795,-0.92401 0.80162,-2.4791 -0.27631,-1.55508 -1.55865,-2.09386 -1.55865,-2.09386 l -28.06418,-11.96528 c 0,0 -0.44536,-0.15913 -0.99854,-0.18613 -0.55318,-0.027 -1.05666,0.0919 -1.05666,0.0919 l -14.85367,4.86304 c 0,0 -0.47879,0.16749 -0.92517,0.59761 -0.4464,0.4301 -0.69973,1.07909 -0.69973,1.07909 l -4.8396,14.76149 c 0,0 -0.15938,0.4839 -0.12777,1.08353 0.0316,0.59962 0.22163,1.00407 0.22163,1.00407 l 11.9646,28.03492 c 0,0 0.53574,1.30738 2.10057,1.5829 z"
         id="path3847"
         inkscape:connector-curvature="0"
         sodipodi:nodetypes="zcczcczcczcczccz" />
      <g
         id="g71"
         transform="matrix(2.7824532,0,0,2.7824532,-6.3542388,346.34724)">
        <path
           id="path73"
           d="m 130.099,70.212 c 0.09,-0.016 0.191,-0.029 0.303,-0.037 0.111,-0.008 0.211,-0.013 0.302,-0.013 0.09,0 0.193,0.004 0.309,0.013 0.115,0.008 0.218,0.021 0.309,0.037 v 3.481 c 0.148,-0.247 0.378,-0.46 0.691,-0.642 0.313,-0.181 0.691,-0.271 1.135,-0.271 0.378,0 0.729,0.062 1.049,0.185 0.321,0.124 0.597,0.315 0.827,0.574 0.23,0.259 0.409,0.589 0.537,0.988 0.127,0.399 0.191,0.87 0.191,1.414 0,1.086 -0.307,1.936 -0.92,2.549 -0.613,0.613 -1.496,0.919 -2.647,0.919 -0.362,0 -0.735,-0.035 -1.117,-0.105 -0.383,-0.07 -0.706,-0.15 -0.969,-0.24 v -8.852 z m 1.222,8.024 c 0.148,0.049 0.307,0.084 0.475,0.105 0.168,0.021 0.344,0.031 0.525,0.031 0.304,0 0.586,-0.047 0.845,-0.142 0.259,-0.094 0.483,-0.239 0.673,-0.432 0.19,-0.193 0.339,-0.44 0.451,-0.741 0.111,-0.3 0.167,-0.656 0.167,-1.067 0,-0.683 -0.119,-1.214 -0.358,-1.593 -0.239,-0.378 -0.634,-0.567 -1.185,-0.567 -0.189,0 -0.376,0.031 -0.562,0.092 -0.185,0.062 -0.356,0.161 -0.512,0.296 -0.157,0.136 -0.282,0.317 -0.376,0.543 -0.095,0.227 -0.142,0.5 -0.142,0.821 v 2.654 z"
           inkscape:connector-curvature="0"
           style="fill:#939bc1" />
        <path
           id="path75"
           d="m 137.69,76.397 c 0.017,0.691 0.195,1.197 0.537,1.518 0.341,0.321 0.846,0.481 1.512,0.481 0.584,0 1.14,-0.103 1.667,-0.309 0.065,0.124 0.119,0.274 0.16,0.451 0.041,0.177 0.066,0.352 0.074,0.525 -0.271,0.115 -0.57,0.201 -0.895,0.259 -0.325,0.058 -0.685,0.086 -1.08,0.086 -0.576,0 -1.07,-0.08 -1.481,-0.241 -0.412,-0.16 -0.751,-0.387 -1.018,-0.679 -0.268,-0.292 -0.463,-0.638 -0.586,-1.037 -0.124,-0.399 -0.185,-0.837 -0.185,-1.314 0,-0.469 0.06,-0.907 0.179,-1.314 0.119,-0.408 0.303,-0.761 0.549,-1.062 0.247,-0.301 0.558,-0.539 0.932,-0.716 0.375,-0.177 0.816,-0.265 1.327,-0.265 0.436,0 0.818,0.074 1.148,0.222 0.329,0.148 0.604,0.352 0.827,0.611 0.222,0.259 0.391,0.568 0.506,0.926 0.115,0.358 0.173,0.747 0.173,1.167 0,0.115 -0.004,0.237 -0.012,0.364 -0.008,0.127 -0.017,0.237 -0.025,0.327 h -4.309 z m 3.135,-0.914 c 0,-0.23 -0.031,-0.451 -0.092,-0.66 -0.062,-0.21 -0.152,-0.393 -0.271,-0.549 -0.12,-0.156 -0.271,-0.282 -0.457,-0.376 -0.185,-0.095 -0.405,-0.142 -0.66,-0.142 -0.502,0 -0.887,0.152 -1.154,0.457 -0.268,0.305 -0.43,0.729 -0.488,1.271 h 3.122 z"
           inkscape:connector-curvature="0"
           style="fill:#939bc1" />
        <path
           id="path77"
           d="m 146.368,75.088 c 0,-0.485 -0.123,-0.823 -0.37,-1.012 -0.247,-0.189 -0.605,-0.284 -1.074,-0.284 -0.288,0 -0.558,0.022 -0.809,0.068 -0.251,0.045 -0.496,0.105 -0.734,0.179 -0.157,-0.271 -0.235,-0.596 -0.235,-0.975 0.28,-0.09 0.588,-0.16 0.926,-0.21 0.337,-0.049 0.663,-0.074 0.975,-0.074 0.823,0 1.449,0.187 1.876,0.562 0.427,0.375 0.642,0.973 0.642,1.796 V 79.1 c -0.288,0.066 -0.638,0.134 -1.049,0.204 -0.412,0.07 -0.832,0.105 -1.259,0.105 -0.403,0 -0.768,-0.037 -1.092,-0.111 -0.325,-0.074 -0.601,-0.193 -0.827,-0.358 -0.227,-0.165 -0.401,-0.375 -0.524,-0.63 -0.124,-0.255 -0.186,-0.563 -0.186,-0.926 0,-0.354 0.072,-0.664 0.216,-0.932 0.144,-0.268 0.339,-0.49 0.586,-0.667 0.247,-0.177 0.531,-0.309 0.852,-0.395 0.321,-0.086 0.658,-0.13 1.012,-0.13 0.263,0 0.479,0.006 0.648,0.019 0.169,0.012 0.311,0.027 0.426,0.043 v -0.234 z m 0,1.198 c -0.123,-0.016 -0.28,-0.033 -0.469,-0.049 -0.189,-0.016 -0.35,-0.024 -0.481,-0.024 -0.51,0 -0.899,0.095 -1.167,0.284 -0.268,0.189 -0.401,0.478 -0.401,0.864 0,0.247 0.045,0.44 0.136,0.58 0.091,0.14 0.204,0.247 0.34,0.321 0.136,0.074 0.286,0.12 0.45,0.136 0.165,0.017 0.321,0.025 0.469,0.025 0.189,0 0.385,-0.01 0.586,-0.031 0.201,-0.021 0.38,-0.051 0.537,-0.093 v -2.013 z"
           inkscape:connector-curvature="0"
           style="fill:#939bc1" />
        <path
           id="path79"
           d="m 148.713,72.928 c 0.09,-0.016 0.193,-0.029 0.309,-0.037 0.115,-0.008 0.214,-0.012 0.296,-0.012 0.09,0 0.193,0.004 0.309,0.012 0.115,0.008 0.218,0.021 0.309,0.037 v 3.469 c 0,0.395 0.037,0.722 0.111,0.981 0.074,0.259 0.185,0.463 0.333,0.611 0.148,0.148 0.329,0.251 0.543,0.309 0.214,0.058 0.461,0.086 0.741,0.086 0.419,0 0.777,-0.045 1.074,-0.136 v -5.32 c 0.09,-0.016 0.191,-0.029 0.303,-0.037 0.111,-0.008 0.211,-0.012 0.302,-0.012 0.09,0 0.191,0.004 0.302,0.012 0.111,0.008 0.212,0.021 0.303,0.037 v 6.135 c -0.288,0.082 -0.632,0.16 -1.031,0.234 -0.399,0.074 -0.813,0.111 -1.241,0.111 -0.403,0 -0.784,-0.035 -1.142,-0.105 -0.358,-0.07 -0.673,-0.211 -0.944,-0.426 -0.271,-0.214 -0.486,-0.514 -0.642,-0.901 -0.156,-0.387 -0.234,-0.897 -0.234,-1.531 v -3.517 z"
           inkscape:connector-curvature="0"
           style="fill:#939bc1" />
        <path
           id="path81"
           d="m 155.49,73.903 h -0.963 l -0.049,-0.173 2.123,-2.37 h 0.099 v 1.568 h 1.605 c 0.033,0.14 0.049,0.296 0.049,0.469 0,0.09 -0.004,0.177 -0.012,0.259 -0.008,0.082 -0.021,0.165 -0.037,0.247 H 156.7 v 2.889 c 0,0.346 0.014,0.622 0.043,0.827 0.029,0.206 0.078,0.364 0.148,0.475 0.07,0.111 0.165,0.185 0.284,0.222 0.119,0.037 0.269,0.056 0.45,0.056 0.14,0 0.271,-0.01 0.395,-0.031 0.124,-0.021 0.235,-0.043 0.333,-0.068 0.058,0.165 0.092,0.333 0.105,0.506 0.012,0.173 0.019,0.325 0.019,0.457 -0.165,0.042 -0.338,0.072 -0.519,0.093 -0.181,0.021 -0.375,0.031 -0.58,0.031 -0.593,0 -1.056,-0.144 -1.389,-0.432 -0.333,-0.288 -0.5,-0.765 -0.5,-1.432 v -3.593 z"
           inkscape:connector-curvature="0"
           style="fill:#939bc1" />
        <path
           id="path83"
           d="m 159.428,73.891 h -0.802 c -0.017,-0.066 -0.029,-0.142 -0.037,-0.229 -0.008,-0.086 -0.012,-0.17 -0.012,-0.253 0,-0.082 0.004,-0.167 0.012,-0.253 0.008,-0.086 0.021,-0.163 0.037,-0.229 h 2 v 6.333 c -0.091,0.017 -0.191,0.029 -0.302,0.037 -0.111,0.008 -0.212,0.012 -0.303,0.012 -0.082,0 -0.179,-0.004 -0.29,-0.012 -0.111,-0.008 -0.212,-0.021 -0.302,-0.037 v -5.369 z m -0.272,-2.358 c -0.017,-0.099 -0.027,-0.206 -0.031,-0.321 -0.004,-0.115 -0.006,-0.218 -0.006,-0.309 0,-0.09 0.002,-0.193 0.006,-0.309 0.004,-0.115 0.015,-0.218 0.031,-0.309 0.107,-0.017 0.222,-0.029 0.346,-0.037 0.123,-0.008 0.23,-0.012 0.321,-0.012 0.09,0 0.197,0.004 0.321,0.012 0.124,0.008 0.234,0.021 0.333,0.037 0.016,0.091 0.026,0.193 0.031,0.309 0.004,0.115 0.006,0.218 0.006,0.309 0,0.091 -0.002,0.193 -0.006,0.309 -0.004,0.115 -0.015,0.222 -0.031,0.321 -0.099,0.017 -0.208,0.029 -0.327,0.037 -0.12,0.008 -0.225,0.012 -0.315,0.012 -0.099,0 -0.21,-0.004 -0.333,-0.012 -0.124,-0.007 -0.239,-0.02 -0.346,-0.037 z"
           inkscape:connector-curvature="0"
           style="fill:#939bc1" />
        <path
           id="path85"
           d="m 162.427,73.891 h -1.037 c -0.033,-0.131 -0.049,-0.292 -0.049,-0.481 0,-0.181 0.016,-0.341 0.049,-0.481 h 1.037 v -0.444 c 0,-0.782 0.195,-1.376 0.586,-1.784 0.391,-0.407 0.961,-0.611 1.709,-0.611 0.206,0 0.387,0.01 0.543,0.031 0.156,0.021 0.304,0.051 0.444,0.092 -0.017,0.206 -0.039,0.383 -0.068,0.531 -0.029,0.148 -0.068,0.301 -0.117,0.457 -0.083,-0.017 -0.179,-0.035 -0.29,-0.056 -0.111,-0.021 -0.245,-0.031 -0.401,-0.031 -0.181,0 -0.344,0.019 -0.488,0.056 -0.144,0.037 -0.267,0.107 -0.37,0.209 -0.103,0.103 -0.183,0.247 -0.241,0.432 -0.058,0.185 -0.086,0.422 -0.086,0.71 v 0.407 h 1.617 c 0.024,0.165 0.037,0.333 0.037,0.506 0,0.156 -0.013,0.309 -0.037,0.457 h -1.617 v 5.37 c -0.091,0.017 -0.191,0.029 -0.302,0.037 -0.111,0.008 -0.212,0.012 -0.303,0.012 -0.09,0 -0.193,-0.004 -0.309,-0.012 -0.115,-0.008 -0.218,-0.021 -0.309,-0.037 v -5.37 z"
           inkscape:connector-curvature="0"
           style="fill:#939bc1" />
        <path
           id="path87"
           d="m 165.871,72.928 c 0.09,-0.016 0.193,-0.029 0.309,-0.037 0.115,-0.008 0.214,-0.012 0.296,-0.012 0.09,0 0.193,0.004 0.309,0.012 0.115,0.008 0.218,0.021 0.309,0.037 v 3.469 c 0,0.395 0.037,0.722 0.111,0.981 0.074,0.259 0.185,0.463 0.333,0.611 0.148,0.148 0.329,0.251 0.543,0.309 0.214,0.058 0.461,0.086 0.741,0.086 0.419,0 0.777,-0.045 1.074,-0.136 v -5.32 c 0.09,-0.016 0.191,-0.029 0.303,-0.037 0.111,-0.008 0.211,-0.012 0.302,-0.012 0.09,0 0.191,0.004 0.302,0.012 0.111,0.008 0.212,0.021 0.303,0.037 v 6.135 c -0.288,0.082 -0.632,0.16 -1.031,0.234 -0.399,0.074 -0.813,0.111 -1.241,0.111 -0.403,0 -0.784,-0.035 -1.142,-0.105 -0.358,-0.07 -0.673,-0.211 -0.944,-0.426 -0.271,-0.214 -0.486,-0.514 -0.642,-0.901 -0.156,-0.387 -0.234,-0.897 -0.234,-1.531 v -3.517 z"
           inkscape:connector-curvature="0"
           style="fill:#939bc1" />
        <path
           id="path89"
           d="m 172.389,70.212 c 0.09,-0.016 0.191,-0.029 0.302,-0.037 0.111,-0.008 0.212,-0.013 0.303,-0.013 0.09,0 0.191,0.004 0.302,0.013 0.111,0.008 0.212,0.021 0.302,0.037 v 7.135 c 0,0.23 0.021,0.411 0.062,0.543 0.041,0.132 0.097,0.232 0.167,0.302 0.07,0.07 0.152,0.115 0.247,0.136 0.094,0.021 0.195,0.031 0.302,0.031 0.074,0 0.158,-0.004 0.253,-0.013 0.095,-0.008 0.175,-0.021 0.241,-0.037 0.074,0.289 0.111,0.601 0.111,0.938 -0.115,0.041 -0.255,0.068 -0.42,0.08 -0.165,0.012 -0.317,0.019 -0.457,0.019 -0.239,0 -0.461,-0.029 -0.667,-0.086 -0.206,-0.058 -0.387,-0.152 -0.543,-0.284 -0.156,-0.132 -0.28,-0.309 -0.37,-0.531 -0.091,-0.222 -0.136,-0.498 -0.136,-0.827 v -7.406 z"
           inkscape:connector-curvature="0"
           style="fill:#939bc1" />
        <path
           id="path91"
           d="m 182.004,78.162 c 0.066,0.115 0.124,0.259 0.173,0.432 0.049,0.173 0.078,0.35 0.086,0.531 -0.485,0.189 -1.041,0.284 -1.667,0.284 -1.053,0 -1.847,-0.298 -2.382,-0.895 -0.535,-0.597 -0.802,-1.401 -0.802,-2.414 0,-0.469 0.066,-0.905 0.198,-1.309 0.131,-0.403 0.327,-0.753 0.586,-1.049 0.259,-0.296 0.582,-0.531 0.969,-0.704 0.387,-0.173 0.835,-0.259 1.345,-0.259 0.346,0 0.65,0.021 0.914,0.062 0.263,0.042 0.514,0.107 0.753,0.198 0,0.14 -0.019,0.302 -0.055,0.487 -0.037,0.185 -0.089,0.348 -0.154,0.488 -0.403,-0.14 -0.864,-0.21 -1.383,-0.21 -0.634,0 -1.107,0.21 -1.419,0.629 -0.313,0.42 -0.469,0.975 -0.469,1.667 0,0.79 0.177,1.368 0.531,1.734 0.354,0.366 0.839,0.549 1.457,0.549 0.247,0 0.476,-0.016 0.685,-0.049 0.209,-0.032 0.421,-0.089 0.634,-0.172 z"
           inkscape:connector-curvature="0"
           style="fill:#939bc1" />
        <path
           id="path93"
           d="m 185.634,79.409 c -0.494,0 -0.926,-0.084 -1.296,-0.253 -0.37,-0.168 -0.679,-0.401 -0.926,-0.697 -0.247,-0.296 -0.43,-0.646 -0.549,-1.049 -0.119,-0.403 -0.179,-0.839 -0.179,-1.309 0,-0.469 0.06,-0.905 0.179,-1.309 0.119,-0.403 0.303,-0.753 0.549,-1.049 0.247,-0.296 0.556,-0.531 0.926,-0.704 0.371,-0.173 0.803,-0.259 1.296,-0.259 0.493,0 0.926,0.086 1.296,0.259 0.371,0.173 0.679,0.407 0.926,0.704 0.247,0.296 0.43,0.646 0.549,1.049 0.119,0.403 0.179,0.84 0.179,1.309 0,0.469 -0.06,0.905 -0.179,1.309 -0.119,0.404 -0.302,0.753 -0.549,1.049 -0.247,0.296 -0.555,0.529 -0.926,0.697 -0.37,0.168 -0.803,0.253 -1.296,0.253 z m 0,-0.975 c 0.568,0 0.987,-0.206 1.259,-0.617 0.272,-0.411 0.408,-0.983 0.408,-1.716 0,-0.733 -0.136,-1.302 -0.408,-1.709 -0.271,-0.407 -0.691,-0.611 -1.259,-0.611 -0.568,0 -0.986,0.204 -1.253,0.611 -0.268,0.407 -0.401,0.977 -0.401,1.709 0,0.732 0.134,1.305 0.401,1.716 0.267,0.411 0.685,0.617 1.253,0.617 z"
           inkscape:connector-curvature="0"
           style="fill:#939bc1" />
        <path
           id="path95"
           d="m 193.633,70.212 c 0.09,-0.016 0.193,-0.029 0.309,-0.037 0.115,-0.008 0.214,-0.013 0.296,-0.013 0.091,0 0.191,0.004 0.303,0.013 0.111,0.008 0.212,0.021 0.302,0.037 v 8.875 c -0.313,0.091 -0.663,0.167 -1.049,0.229 -0.387,0.062 -0.819,0.092 -1.296,0.092 -0.444,0 -0.866,-0.055 -1.265,-0.167 -0.399,-0.111 -0.747,-0.294 -1.043,-0.549 -0.296,-0.255 -0.531,-0.584 -0.704,-0.987 -0.172,-0.403 -0.259,-0.901 -0.259,-1.494 0,-0.51 0.076,-0.975 0.228,-1.395 0.152,-0.42 0.368,-0.78 0.648,-1.08 0.279,-0.3 0.615,-0.533 1.006,-0.697 0.391,-0.165 0.825,-0.247 1.302,-0.247 0.214,0 0.43,0.017 0.648,0.049 0.218,0.033 0.409,0.074 0.574,0.124 v -2.753 z m 0,3.79 c -0.165,-0.065 -0.342,-0.115 -0.531,-0.148 -0.189,-0.033 -0.395,-0.049 -0.617,-0.049 -0.338,0 -0.63,0.062 -0.876,0.185 -0.247,0.124 -0.451,0.292 -0.611,0.506 -0.16,0.214 -0.28,0.467 -0.358,0.759 -0.078,0.292 -0.117,0.611 -0.117,0.957 0.008,0.782 0.193,1.341 0.556,1.679 0.362,0.337 0.855,0.506 1.481,0.506 0.214,0 0.412,-0.01 0.593,-0.031 0.181,-0.021 0.341,-0.051 0.481,-0.092 v -4.272 z"
           inkscape:connector-curvature="0"
           style="fill:#939bc1" />
        <path
           id="path97"
           d="m 197.101,76.397 c 0.017,0.691 0.195,1.197 0.537,1.518 0.341,0.321 0.846,0.481 1.512,0.481 0.584,0 1.14,-0.103 1.667,-0.309 0.065,0.124 0.119,0.274 0.16,0.451 0.041,0.177 0.066,0.352 0.074,0.525 -0.271,0.115 -0.57,0.201 -0.895,0.259 -0.325,0.058 -0.685,0.086 -1.08,0.086 -0.576,0 -1.07,-0.08 -1.481,-0.241 -0.412,-0.16 -0.751,-0.387 -1.018,-0.679 -0.268,-0.292 -0.463,-0.638 -0.586,-1.037 -0.124,-0.399 -0.185,-0.837 -0.185,-1.314 0,-0.469 0.06,-0.907 0.179,-1.314 0.119,-0.408 0.303,-0.761 0.549,-1.062 0.247,-0.301 0.558,-0.539 0.932,-0.716 0.375,-0.177 0.816,-0.265 1.327,-0.265 0.436,0 0.818,0.074 1.148,0.222 0.329,0.148 0.604,0.352 0.827,0.611 0.222,0.259 0.391,0.568 0.506,0.926 0.115,0.358 0.173,0.747 0.173,1.167 0,0.115 -0.004,0.237 -0.012,0.364 -0.008,0.127 -0.017,0.237 -0.025,0.327 h -4.309 z m 3.135,-0.914 c 0,-0.23 -0.031,-0.451 -0.092,-0.66 -0.062,-0.21 -0.152,-0.393 -0.271,-0.549 -0.12,-0.156 -0.271,-0.282 -0.457,-0.376 -0.185,-0.095 -0.405,-0.142 -0.66,-0.142 -0.502,0 -0.887,0.152 -1.154,0.457 -0.268,0.305 -0.43,0.729 -0.488,1.271 h 3.122 z"
           inkscape:connector-curvature="0"
           style="fill:#939bc1" />
      </g>
      <g
         style="fill:#304392;fill-opacity:1"
         id="g99"
         transform="matrix(2.7824532,0,0,2.7824532,-6.3542388,346.34724)">
        <path
           id="path101"
           d="m 108.169,45.948 c 0.218,-0.036 0.444,-0.063 0.68,-0.082 0.236,-0.018 0.472,-0.027 0.708,-0.027 0.236,0 0.472,0.01 0.708,0.027 0.235,0.019 0.463,0.046 0.681,0.082 v 19.574 c -0.218,0.036 -0.445,0.063 -0.681,0.082 -0.236,0.018 -0.472,0.027 -0.708,0.027 -0.254,0 -0.5,-0.01 -0.735,-0.027 -0.236,-0.019 -0.454,-0.046 -0.653,-0.082 V 45.948 z m 3.593,9.638 6.289,-9.638 c 0.254,-0.036 0.504,-0.063 0.749,-0.082 0.245,-0.018 0.467,-0.027 0.667,-0.027 0.236,0 0.49,0.01 0.763,0.027 0.272,0.019 0.553,0.046 0.844,0.082 l -6.207,9.393 6.997,10.182 c -0.291,0.036 -0.577,0.063 -0.857,0.082 -0.282,0.018 -0.549,0.027 -0.803,0.027 -0.218,0 -0.454,-0.01 -0.708,-0.027 -0.254,-0.019 -0.517,-0.046 -0.79,-0.082 l -6.944,-9.937 z"
           inkscape:connector-curvature="0"
           style="fill:#304392;fill-opacity:1" />
        <path
           id="path103"
           d="m 130.465,56.32 c 0,-1.07 -0.272,-1.814 -0.816,-2.232 -0.544,-0.417 -1.334,-0.626 -2.369,-0.626 -0.636,0 -1.23,0.05 -1.783,0.149 -0.554,0.101 -1.094,0.231 -1.62,0.396 -0.345,-0.6 -0.517,-1.316 -0.517,-2.151 0.617,-0.199 1.297,-0.354 2.042,-0.463 0.744,-0.108 1.46,-0.163 2.151,-0.163 1.814,0 3.194,0.413 4.138,1.238 0.944,0.826 1.416,2.146 1.416,3.962 v 8.739 c -0.636,0.146 -1.407,0.295 -2.314,0.449 -0.908,0.153 -1.833,0.231 -2.777,0.231 -0.889,0 -1.692,-0.082 -2.409,-0.245 -0.717,-0.164 -1.325,-0.427 -1.824,-0.79 -0.5,-0.362 -0.885,-0.825 -1.157,-1.389 -0.272,-0.562 -0.409,-1.242 -0.409,-2.041 0,-0.78 0.159,-1.466 0.477,-2.056 0.317,-0.59 0.749,-1.08 1.293,-1.471 0.545,-0.39 1.171,-0.681 1.879,-0.871 0.708,-0.19 1.452,-0.285 2.232,-0.285 0.581,0 1.057,0.013 1.429,0.04 0.372,0.027 0.685,0.06 0.939,0.096 V 56.32 z m 0,2.641 c -0.272,-0.036 -0.617,-0.072 -1.034,-0.108 -0.418,-0.036 -0.772,-0.055 -1.062,-0.055 -1.125,0 -1.983,0.209 -2.573,0.626 -0.59,0.418 -0.885,1.053 -0.885,1.906 0,0.544 0.1,0.971 0.299,1.279 0.199,0.308 0.449,0.545 0.749,0.708 0.299,0.163 0.63,0.264 0.994,0.3 0.363,0.036 0.708,0.054 1.035,0.054 0.417,0 0.848,-0.022 1.293,-0.067 0.444,-0.046 0.839,-0.113 1.184,-0.204 v -4.439 z"
           inkscape:connector-curvature="0"
           style="fill:#304392;fill-opacity:1" />
        <path
           id="path105"
           d="m 135.883,45.566 c 0.2,-0.036 0.422,-0.063 0.667,-0.081 0.245,-0.019 0.467,-0.027 0.667,-0.027 0.2,0 0.422,0.009 0.667,0.027 0.245,0.018 0.467,0.045 0.667,0.081 v 15.736 c 0,0.508 0.045,0.907 0.136,1.198 0.09,0.29 0.213,0.513 0.368,0.667 0.154,0.154 0.335,0.254 0.544,0.299 0.208,0.046 0.431,0.068 0.667,0.068 0.163,0 0.349,-0.009 0.558,-0.027 0.208,-0.018 0.385,-0.045 0.531,-0.082 0.164,0.636 0.245,1.325 0.245,2.069 -0.254,0.091 -0.563,0.149 -0.926,0.177 -0.363,0.027 -0.699,0.041 -1.007,0.041 -0.526,0 -1.017,-0.063 -1.47,-0.19 -0.453,-0.127 -0.853,-0.336 -1.198,-0.626 -0.345,-0.29 -0.617,-0.681 -0.817,-1.171 -0.2,-0.49 -0.299,-1.098 -0.299,-1.824 V 45.566 z"
           inkscape:connector-curvature="0"
           style="fill:#304392;fill-opacity:1" />
        <path
           id="path107"
           d="m 144.84,59.206 c 0.036,1.524 0.431,2.641 1.185,3.349 0.753,0.708 1.865,1.063 3.335,1.063 1.289,0 2.514,-0.228 3.675,-0.681 0.145,0.271 0.263,0.604 0.354,0.993 0.09,0.391 0.145,0.776 0.163,1.157 -0.599,0.254 -1.257,0.444 -1.974,0.571 -0.717,0.127 -1.511,0.191 -2.382,0.191 -1.271,0 -2.359,-0.178 -3.267,-0.531 -0.908,-0.354 -1.657,-0.853 -2.246,-1.497 -0.59,-0.645 -1.021,-1.406 -1.293,-2.287 -0.272,-0.88 -0.408,-1.847 -0.408,-2.899 0,-1.035 0.131,-2.001 0.395,-2.899 0.263,-0.898 0.667,-1.679 1.211,-2.342 0.544,-0.662 1.229,-1.188 2.055,-1.579 0.826,-0.39 1.801,-0.585 2.927,-0.585 0.962,0 1.806,0.163 2.532,0.49 0.726,0.326 1.334,0.775 1.824,1.348 0.49,0.571 0.862,1.252 1.116,2.042 0.254,0.789 0.381,1.646 0.381,2.572 0,0.255 -0.01,0.522 -0.027,0.804 -0.019,0.281 -0.037,0.521 -0.055,0.721 h -9.501 z m 6.915,-2.015 c 0,-0.508 -0.068,-0.993 -0.205,-1.456 -0.136,-0.463 -0.336,-0.866 -0.599,-1.212 -0.264,-0.345 -0.599,-0.621 -1.007,-0.83 -0.409,-0.208 -0.895,-0.313 -1.457,-0.313 -1.107,0 -1.956,0.337 -2.545,1.008 -0.59,0.672 -0.949,1.606 -1.076,2.804 h 6.889 z"
           inkscape:connector-curvature="0"
           style="fill:#304392;fill-opacity:1" />
        <path
           id="path109"
           d="m 157.554,53.68 h -1.77 c -0.037,-0.145 -0.064,-0.313 -0.082,-0.504 -0.019,-0.19 -0.027,-0.376 -0.027,-0.558 0,-0.182 0.009,-0.368 0.027,-0.559 0.018,-0.19 0.045,-0.357 0.082,-0.503 h 4.411 v 13.966 c -0.2,0.036 -0.422,0.063 -0.667,0.082 -0.245,0.018 -0.467,0.027 -0.667,0.027 -0.182,0 -0.395,-0.01 -0.64,-0.027 -0.245,-0.019 -0.467,-0.046 -0.667,-0.082 V 53.68 z m -0.599,-5.201 c -0.037,-0.218 -0.06,-0.453 -0.068,-0.707 -0.009,-0.255 -0.014,-0.481 -0.014,-0.681 0,-0.2 0.004,-0.427 0.014,-0.681 0.009,-0.254 0.032,-0.481 0.068,-0.681 0.235,-0.036 0.49,-0.063 0.762,-0.082 0.272,-0.018 0.508,-0.027 0.708,-0.027 0.2,0 0.436,0.01 0.708,0.027 0.272,0.019 0.517,0.046 0.735,0.082 0.037,0.199 0.059,0.427 0.068,0.681 0.009,0.254 0.014,0.48 0.014,0.681 0,0.199 -0.005,0.426 -0.014,0.681 -0.009,0.254 -0.032,0.489 -0.068,0.707 -0.218,0.037 -0.458,0.064 -0.721,0.082 -0.263,0.019 -0.495,0.027 -0.694,0.027 -0.218,0 -0.463,-0.009 -0.735,-0.027 -0.273,-0.017 -0.528,-0.044 -0.763,-0.082 z"
           inkscape:connector-curvature="0"
           style="fill:#304392;fill-opacity:1" />
        <path
           id="path111"
           d="m 172.31,45.566 c 0.2,-0.036 0.426,-0.063 0.681,-0.081 0.254,-0.019 0.472,-0.027 0.653,-0.027 0.2,0 0.422,0.009 0.667,0.027 0.245,0.018 0.467,0.045 0.667,0.081 v 19.575 c -0.69,0.199 -1.461,0.367 -2.314,0.503 -0.854,0.137 -1.806,0.205 -2.858,0.205 -0.98,0 -1.911,-0.123 -2.791,-0.368 -0.881,-0.245 -1.647,-0.648 -2.301,-1.211 -0.654,-0.563 -1.17,-1.289 -1.552,-2.179 -0.381,-0.889 -0.572,-1.987 -0.572,-3.294 0,-1.125 0.168,-2.15 0.504,-3.076 0.335,-0.926 0.812,-1.72 1.429,-2.382 0.617,-0.663 1.356,-1.176 2.219,-1.539 0.862,-0.362 1.819,-0.544 2.872,-0.544 0.472,0 0.948,0.036 1.43,0.108 0.48,0.073 0.902,0.164 1.266,0.272 v -6.07 z m 0,8.359 c -0.363,-0.146 -0.753,-0.254 -1.17,-0.327 -0.418,-0.072 -0.871,-0.108 -1.361,-0.108 -0.745,0 -1.389,0.136 -1.933,0.408 -0.544,0.272 -0.994,0.645 -1.348,1.116 -0.354,0.473 -0.617,1.03 -0.79,1.675 -0.172,0.644 -0.258,1.348 -0.258,2.109 0.018,1.725 0.426,2.959 1.225,3.703 0.798,0.744 1.887,1.116 3.267,1.116 0.472,0 0.908,-0.023 1.307,-0.068 0.399,-0.045 0.753,-0.113 1.062,-0.204 v -9.42 z"
           inkscape:connector-curvature="0"
           style="fill:#304392;fill-opacity:1" />
        <path
           id="path113"
           d="m 183.744,65.85 c -1.089,0 -2.042,-0.187 -2.859,-0.559 -0.816,-0.372 -1.497,-0.885 -2.042,-1.538 -0.545,-0.653 -0.949,-1.425 -1.211,-2.314 -0.264,-0.889 -0.395,-1.851 -0.395,-2.886 0,-1.034 0.131,-1.996 0.395,-2.886 0.263,-0.889 0.667,-1.66 1.211,-2.313 0.544,-0.654 1.225,-1.171 2.042,-1.553 0.817,-0.381 1.77,-0.571 2.859,-0.571 1.089,0 2.042,0.19 2.858,0.571 0.817,0.382 1.498,0.898 2.042,1.553 0.544,0.653 0.948,1.425 1.211,2.313 0.263,0.89 0.395,1.852 0.395,2.886 0,1.035 -0.132,1.997 -0.395,2.886 -0.263,0.89 -0.667,1.661 -1.211,2.314 -0.544,0.653 -1.225,1.166 -2.042,1.538 -0.817,0.372 -1.769,0.559 -2.858,0.559 z m 0,-2.152 c 1.252,0 2.178,-0.453 2.777,-1.361 0.599,-0.907 0.898,-2.168 0.898,-3.784 0,-1.615 -0.299,-2.872 -0.898,-3.771 -0.599,-0.899 -1.524,-1.348 -2.777,-1.348 -1.253,0 -2.174,0.449 -2.763,1.348 -0.59,0.898 -0.885,2.155 -0.885,3.771 0,1.616 0.295,2.877 0.885,3.784 0.589,0.908 1.51,1.361 2.763,1.361 z"
           inkscape:connector-curvature="0"
           style="fill:#304392;fill-opacity:1" />
        <path
           id="path115"
           d="m 192.32,62.99 c 0.49,0.2 1.03,0.359 1.62,0.477 0.59,0.118 1.175,0.177 1.756,0.177 0.417,0 0.817,-0.045 1.198,-0.136 0.381,-0.091 0.712,-0.227 0.994,-0.408 0.281,-0.182 0.508,-0.404 0.681,-0.667 0.172,-0.263 0.258,-0.559 0.258,-0.885 0,-0.363 -0.068,-0.662 -0.204,-0.898 -0.136,-0.235 -0.318,-0.436 -0.544,-0.599 -0.227,-0.164 -0.49,-0.305 -0.79,-0.423 -0.299,-0.117 -0.622,-0.231 -0.966,-0.34 l -0.953,-0.354 c -1.162,-0.437 -2.005,-0.926 -2.532,-1.471 -0.526,-0.544 -0.79,-1.279 -0.79,-2.205 0,-1.234 0.44,-2.214 1.32,-2.94 0.88,-0.726 2.173,-1.089 3.88,-1.089 0.708,0 1.402,0.068 2.083,0.204 0.681,0.136 1.275,0.295 1.783,0.477 -0.037,0.363 -0.104,0.727 -0.204,1.089 -0.1,0.363 -0.223,0.699 -0.368,1.008 -0.399,-0.146 -0.876,-0.286 -1.429,-0.423 -0.554,-0.136 -1.148,-0.204 -1.783,-0.204 -0.672,0 -1.266,0.118 -1.783,0.354 -0.518,0.236 -0.776,0.653 -0.776,1.252 0,0.309 0.063,0.572 0.19,0.79 0.127,0.218 0.299,0.403 0.517,0.558 0.218,0.155 0.467,0.286 0.749,0.395 0.281,0.109 0.585,0.218 0.912,0.327 l 1.198,0.408 c 0.436,0.146 0.848,0.317 1.239,0.518 0.39,0.2 0.726,0.449 1.007,0.748 0.281,0.3 0.508,0.663 0.681,1.09 0.172,0.426 0.258,0.938 0.258,1.538 0,0.671 -0.136,1.284 -0.408,1.837 -0.272,0.555 -0.658,1.026 -1.157,1.416 -0.499,0.391 -1.103,0.694 -1.81,0.912 -0.708,0.218 -1.489,0.327 -2.342,0.327 -0.871,0 -1.633,-0.06 -2.287,-0.178 -0.654,-0.118 -1.262,-0.276 -1.824,-0.477 0.036,-0.362 0.113,-0.729 0.231,-1.103 0.118,-0.37 0.249,-0.738 0.395,-1.102 z"
           inkscape:connector-curvature="0"
           style="fill:#304392;fill-opacity:1" />
      </g>
    </g>
  </g>
</svg>
